# xmcd
#
# Track frame offsets: 
#        150
#        13057
#        23509
#        33661
#        44065
#        56154
#        67800
#        77683
#        89710
#        101963
#        112278
#        124222
#        136372
#        147293
#        158138
#        167720
#        179633
#        190933
#        203032
#        216137
#        227415
#        239104
#        248576
#        259125
#        270198
#        280590
#        290875
#        302029
#        313131
#        324992
#        335123
#        345547
#
# Disc length: 4733 seconds
#
# Revision: 0
# Processed by: cddbd v1.5.2PL0 Copyright (c) Steve Scherf et al.
# Submitted via: ExactAudioCopy v0.95b3
#
DISCID=ee127b20
DTITLE=Chet Atkins  - The Early Years 1946- 1957 [Best of] - Disc 2  F
DTITLE=LAC
DYEAR=1900
DGENRE=
TTITLE0=Boogie Man Boogie - Chet Atkins and His Guitar Pickers
TTITLE1=Main Street Breakdown - Chet Atkins and His Guitar Pickers
TTITLE2=Confusin' - Chet Atkins and His Guitar Pickers
TTITLE3=Music in My Heart - Chet Atkins and His Guitar Pickers
TTITLE4=Indian Love Call - Chet Atkins and His Guitar Pickers
TTITLE5=Birth of the Blues - Chet Atkins and His Guitar Pickers
TTITLE6=Mountain Melody - Chet Atkins and His Guitar Pickers
TTITLE7=You're Always Brand New - Chet Atkins and His Guitar Pickers
TTITLE8=My Crazy Heart - Chet Atkins and His Guitar Pickers
TTITLE9=Hybrid Corn - Chet Atkins and His Guitar Pickers
TTITLE10=Jitterbug Waltz - Chet Atkins
TTITLE11=One Man Boogie - Chet Atkins
TTITLE12=Crazy Rhythm - Chet Atkins
TTITLE13=Crazy Rhythm - Chet Atkins
TTITLE14=Crazy Rhythm - Chet Atkins
TTITLE15=Rustic Dance - Chet Atkins and His Galloping Guitar
TTITLE16=Rainbow - Chet Atkins and His Galloping Guitar
TTITLE17=In the Mood - Chet Atkins and His Galloping Guitar
TTITLE18=Spanish Fandango - Chet Atkins and His Galloping Guitar
TTITLE19=Midnight - Chet Atkins and His Galloping Guitar
TTITLE20=Good-Bye Blues - Chet Atkins and His Galloping Guitar
TTITLE21=Your Mean Little Heart - Chet Atkins and His Galloping Guitar
TTITLE22=Sweet Bunch of Daisies - Chet Atkins and His Galloping Guitar
TTITLE23=Blue Gypsy - Chet Atkins and His Galloping Guitar
TTITLE24=Third Man Theme - Chet Atkins and His Galloping Guitar
TTITLE25=St Louis Blues - Chet Atkins and His Galloping Guitar
TTITLE26=Nobody's Sweetheart - Chet Atkins and His Galloping Guitar
TTITLE27=Lover Come Back to Me - Chet Atkins and His Galloping Guitar
TTITLE28=Stephen Foster Melody - Chet Atkins and His Galloping Guitar
TTITLE29=Hangover Blues - Chet Atkins and His Galloping Guitar
TTITLE30=Black Mountain Rag - Chet Atkins and His Galloping Guitar
TTITLE31=Guitar Polka - Chet Atkins and His Galloping Guitar
EXTD=
EXTT0=
EXTT1=
EXTT2=
EXTT3=
EXTT4=
EXTT5=
EXTT6=
EXTT7=
EXTT8=
EXTT9=
EXTT10=
EXTT11=
EXTT12=
EXTT13=
EXTT14=
EXTT15=
EXTT16=
EXTT17=
EXTT18=
EXTT19=
EXTT20=
EXTT21=
EXTT22=
EXTT23=
EXTT24=
EXTT25=
EXTT26=
EXTT27=
EXTT28=
EXTT29=
EXTT30=
EXTT31=
PLAYORDER=
